<svg width="163" height="14" viewBox="0 0 163 14" fill="none" xmlns="http://www.w3.org/2000/svg">
<g clip-path="url(#clip0_1901_553)">
<path d="M7.15 4.15996C7.33 4.19996 7.42 4.28996 7.42 4.47996V5.56996C7.42 5.74996 7.33 5.83996 7.13 5.83996H4.33C2.42 5.83996 2.17 6.45996 2.17 8.97996C2.17 11.5 2.42 12.14 4.33 12.14H7.13C7.33 12.14 7.42 12.23 7.42 12.41V13.5C7.42 13.7 7.33 13.79 7.15 13.82C6.2 13.98 5.05 14.02 4.33 14.02C0.71 14.02 0 13.02 0 8.98996C0 4.95996 0.71 3.95996 4.33 3.95996C5.04 3.95996 6.2 3.99996 7.15 4.15996Z" fill="white"/>
<path d="M17.55 8.98996C17.55 13 16.77 14 13.2 14C9.63 14 8.87 13 8.87 8.98996C8.87 4.97996 9.64 3.95996 13.2 3.95996C16.76 3.95996 17.55 4.95996 17.55 8.98996ZM11.02 8.98996C11.02 11.5 11.29 12.13 13.2 12.13C15.11 12.13 15.38 11.51 15.38 8.98996C15.38 6.46996 15.11 5.82996 13.2 5.82996C11.29 5.82996 11.02 6.44996 11.02 8.98996Z" fill="white"/>
<path d="M32.97 7.89994L32.93 13.6399C32.93 13.8199 32.86 13.9099 32.68 13.9099H31.06C30.88 13.9099 30.81 13.8199 30.81 13.6399V8.57994C30.81 5.93994 30.4 5.81994 28.85 5.81994C28.23 5.81994 27.58 5.86994 27.07 5.95994C27.25 6.49994 27.34 7.20994 27.34 8.18994L27.3 13.6499C27.3 13.8499 27.23 13.9199 27.07 13.9199H25.43C25.25 13.9199 25.16 13.8299 25.16 13.6499V8.22994C25.16 5.92994 24.71 5.83994 23.2 5.83994H21.68V13.6499C21.68 13.8299 21.59 13.9199 21.41 13.9199H19.79C19.61 13.9199 19.54 13.8299 19.52 13.6499V4.52994C19.52 4.31994 19.61 4.27994 19.79 4.23994C20.73 4.03994 22.11 3.94994 22.96 3.94994C24.21 3.94994 25.39 4.17994 26.03 4.48994C26.99 4.14994 28.17 3.93994 29.03 3.93994C31.97 3.93994 32.99 4.52994 32.97 7.89994Z" fill="white"/>
<path d="M43.35 4.05005C43.53 4.05005 43.62 4.14005 43.62 4.32005V13.42C43.62 13.65 43.53 13.67 43.35 13.71C42.03 13.98 40.44 14.01 39.37 14.01C36.07 14.01 35.14 13.49 35.14 9.77005V4.33005C35.14 4.15005 35.27 4.06005 35.44 4.06005H37.04C37.22 4.06005 37.29 4.15005 37.29 4.33005V9.38005C37.29 12.02 37.7 12.14 39.38 12.14H41.43V4.33005C41.43 4.15005 41.52 4.06005 41.7 4.06005H43.34L43.35 4.05005Z" fill="white"/>
<path d="M54.35 8.18995V13.65C54.35 13.83 54.24 13.92 54.06 13.92H52.46C52.28 13.92 52.19 13.83 52.19 13.65V8.58995C52.19 5.94995 51.78 5.83995 50.1 5.83995H48.05V13.65C48.05 13.83 47.96 13.92 47.78 13.92H46.14C45.96 13.92 45.89 13.83 45.89 13.65V4.52995C45.89 4.29995 45.98 4.27995 46.14 4.23995C47.46 3.96995 49.05 3.94995 50.13 3.94995C53.43 3.94995 54.34 4.44995 54.34 8.17995L54.35 8.18995Z" fill="white"/>
<path d="M58.97 1.23C58.97 2.01 58.52 2.46 57.69 2.46C56.86 2.46 56.39 2.01 56.39 1.23C56.39 0.45 56.85 0 57.69 0C58.53 0 58.97 0.45 58.97 1.23ZM58.49 4.05C58.67 4.05 58.76 4.14 58.76 4.32V13.65C58.76 13.83 58.67 13.92 58.49 13.92H56.87C56.69 13.92 56.6 13.83 56.6 13.65V4.32C56.6 4.14 56.69 4.05 56.87 4.05H58.49Z" fill="white"/>
<path d="M67.92 4.15998C68.1 4.19998 68.19 4.28998 68.19 4.47998V5.56998C68.19 5.74998 68.1 5.83998 67.9 5.83998H65.1C63.19 5.83998 62.94 6.45998 62.94 8.97998C62.94 11.5 63.19 12.14 65.1 12.14H67.9C68.1 12.14 68.19 12.23 68.19 12.41V13.5C68.19 13.7 68.1 13.79 67.92 13.82C66.98 13.98 65.82 14.02 65.1 14.02C61.48 14.02 60.77 13.02 60.77 8.98998C60.77 4.95998 61.48 3.97998 65.1 3.97998C65.81 3.97998 66.97 4.01998 67.92 4.17998V4.15998Z" fill="white"/>
<path d="M77.51 6.87994V13.0899C77.51 13.3199 77.47 13.4999 77.15 13.6099C76.22 13.8799 74.65 13.9999 73.14 13.9999C70.64 13.9999 69.38 13.6099 69.38 11.0199C69.38 8.74994 70.58 8.17994 72.77 8.17994H75.36V7.24994C75.36 6.24994 74.77 5.81994 73.34 5.81994H70.41C70.2 5.81994 70.14 5.76994 70.14 5.54994V4.45994C70.14 4.24994 70.21 4.20994 70.39 4.16994C71.46 3.96994 72.42 3.93994 73.33 3.93994C76.47 3.93994 77.5 4.93994 77.5 6.85994L77.51 6.87994ZM72.89 9.72994C71.95 9.72994 71.52 10.0299 71.52 10.9299C71.52 11.9499 72 12.1999 73.32 12.1999C73.77 12.1999 74.75 12.1599 75.35 11.9999V9.72994H72.89Z" fill="white"/>
<path d="M86.59 4.15998C86.77 4.19998 86.86 4.28998 86.86 4.47998V5.56998C86.86 5.74998 86.77 5.83998 86.57 5.83998H83.77C81.86 5.83998 81.61 6.45998 81.61 8.97998C81.61 11.5 81.86 12.14 83.77 12.14H86.57C86.77 12.14 86.86 12.23 86.86 12.41V13.5C86.86 13.7 86.77 13.79 86.59 13.82C85.64 13.98 84.49 14.02 83.77 14.02C80.15 14.02 79.44 13.02 79.44 8.98998C79.44 4.95998 80.15 3.97998 83.77 3.97998C84.48 3.97998 85.64 4.01998 86.59 4.17998V4.15998Z" fill="white"/>
<path d="M90.99 1.23C90.99 2.01 90.54 2.46 89.71 2.46C88.88 2.46 88.41 2.01 88.41 1.23C88.41 0.45 88.87 0 89.71 0C90.55 0 90.99 0.45 90.99 1.23ZM90.51 4.05C90.69 4.05 90.78 4.14 90.78 4.32V13.65C90.78 13.83 90.69 13.92 90.51 13.92H88.89C88.71 13.92 88.62 13.83 88.62 13.65V4.32C88.62 4.14 88.71 4.05 88.89 4.05H90.51Z" fill="white"/>
<path d="M101.46 8.99008C101.46 13.0001 100.68 14.0001 97.11 14.0001C93.54 14.0001 92.78 13.0001 92.78 8.99008C92.78 4.98008 93.55 3.96008 97.11 3.96008C100.67 3.96008 101.46 4.96008 101.46 8.99008ZM94.93 8.99008C94.93 11.5001 95.2 12.1301 97.11 12.1301C99.02 12.1301 99.29 11.5101 99.29 8.99008C99.29 6.47008 99.02 5.83008 97.11 5.83008C95.2 5.83008 94.93 6.45008 94.93 8.99008ZM99.76 0.0900781C99.87 0.0900781 99.94 0.140078 99.94 0.270078V0.390078C99.94 0.480078 99.9 0.550078 99.85 0.600078L97.03 3.01008C96.94 3.08008 96.89 3.08008 96.78 3.01008L96.23 2.67008C96.14 2.62008 96.12 2.51008 96.18 2.42008L97.48 0.190078C97.52 0.120078 97.59 0.0800781 97.69 0.0800781H99.76V0.0900781Z" fill="white"/>
<path d="M111.89 8.18995V13.65C111.89 13.83 111.78 13.92 111.6 13.92H109.99C109.81 13.92 109.72 13.83 109.72 13.65V8.58995C109.72 5.94995 109.31 5.83995 107.63 5.83995H105.58V13.65C105.58 13.83 105.49 13.92 105.31 13.92H103.67C103.49 13.92 103.42 13.83 103.42 13.65V4.52995C103.42 4.29995 103.51 4.27995 103.67 4.23995C104.99 3.96995 106.58 3.94995 107.66 3.94995C110.96 3.94995 111.87 4.44995 111.87 8.17995L111.89 8.18995Z" fill="white"/>
<path d="M122.57 8.18995V13.65C122.57 13.83 122.46 13.92 122.28 13.92H120.67C120.49 13.92 120.4 13.83 120.4 13.65V8.58995C120.4 5.94995 119.99 5.83995 118.31 5.83995H116.26V13.65C116.26 13.83 116.17 13.92 115.99 13.92H114.35C114.17 13.92 114.1 13.83 114.1 13.65V4.52995C114.1 4.29995 114.19 4.27995 114.35 4.23995C115.67 3.96995 117.26 3.94995 118.34 3.94995C121.64 3.94995 122.55 4.44995 122.55 8.17995L122.57 8.18995Z" fill="#E98001"/>
<path d="M132.38 6.87994V13.0899C132.38 13.3199 132.34 13.4999 132.02 13.6099C131.09 13.8799 129.52 13.9999 128.01 13.9999C125.51 13.9999 124.25 13.6099 124.25 11.0199C124.25 8.74994 125.45 8.17994 127.64 8.17994H130.23V7.24994C130.23 6.24994 129.64 5.81994 128.21 5.81994H125.29C125.08 5.81994 125.02 5.76994 125.02 5.54994V4.45994C125.02 4.24994 125.09 4.20994 125.27 4.16994C126.34 3.96994 127.3 3.93994 128.21 3.93994C131.35 3.93994 132.38 4.93994 132.38 6.85994V6.87994ZM127.76 9.72994C126.81 9.72994 126.39 10.0299 126.39 10.9299C126.39 11.9499 126.87 12.1999 128.19 12.1999C128.64 12.1999 129.62 12.1599 130.22 11.9999V9.72994H127.76Z" fill="#E98001"/>
<path d="M137.03 1.32011C137.23 1.27011 137.33 1.37011 137.33 1.57011V4.07011H139.1C139.28 4.07011 139.39 4.16011 139.39 4.34011V5.46011C139.39 5.66011 139.28 5.75011 139.1 5.75011H137.33V11.1901C137.33 11.9701 137.56 12.1401 138.44 12.1401H139.22C139.43 12.1401 139.52 12.2101 139.52 12.3901V13.5701C139.52 13.7701 139.43 13.8601 139.25 13.8901C138.75 13.9801 138.25 14.0101 137.98 14.0101C136.59 14.0101 135.14 13.9701 135.14 11.8301V5.75011H134.12C133.94 5.75011 133.83 5.66011 133.83 5.46011V4.34011C133.83 4.16011 133.94 4.07011 134.12 4.07011H135.14V2.02011C135.14 1.84011 135.23 1.77011 135.39 1.73011L137.01 1.32011H137.03Z" fill="#E98001"/>
<path d="M143.43 1.23C143.43 2.01 142.98 2.46 142.15 2.46C141.32 2.46 140.85 2.01 140.85 1.23C140.85 0.45 141.31 0 142.15 0C142.99 0 143.43 0.45 143.43 1.23ZM142.95 4.05C143.13 4.05 143.22 4.14 143.22 4.32V13.65C143.22 13.83 143.13 13.92 142.95 13.92H141.33C141.15 13.92 141.06 13.83 141.06 13.65V4.32C141.06 4.14 141.15 4.05 141.33 4.05H142.95Z" fill="#E98001"/>
<path d="M153.79 4.05005C153.99 4.05005 154.04 4.10005 154 4.34005L151.98 11.9C151.5 13.77 151.36 14 149.36 14C147.51 14 147.34 13.79 146.83 11.9L144.74 4.34005C144.7 4.11005 144.78 4.05005 144.97 4.05005H146.74C146.88 4.05005 146.9 4.10005 146.97 4.34005L148.82 11.44C149 12.06 149.05 12.15 149.36 12.15C149.73 12.15 149.81 12.06 149.97 11.44L151.77 4.34005C151.82 4.11005 151.86 4.05005 152 4.05005H153.78H153.79Z" fill="#E98001"/>
<path d="M162.92 6.87994V13.0899C162.92 13.3199 162.88 13.4999 162.56 13.6099C161.63 13.8799 160.06 13.9999 158.55 13.9999C156.05 13.9999 154.79 13.6099 154.79 11.0199C154.79 8.74994 155.99 8.17994 158.18 8.17994H160.77V7.24994C160.77 6.24994 160.18 5.81994 158.75 5.81994H155.83C155.62 5.81994 155.56 5.76994 155.56 5.54994V4.45994C155.56 4.24994 155.63 4.20994 155.81 4.16994C156.88 3.96994 157.84 3.93994 158.75 3.93994C161.89 3.93994 162.92 4.93994 162.92 6.85994V6.87994ZM158.3 9.72994C157.35 9.72994 156.93 10.0299 156.93 10.9299C156.93 11.9499 157.41 12.1999 158.73 12.1999C159.18 12.1999 160.16 12.1599 160.76 11.9999V9.72994H158.3Z" fill="#E98001"/>
</g>
<defs>
<clipPath id="clip0_1901_553">
<rect width="162.92" height="14" fill="white"/>
</clipPath>
</defs>
</svg>
