<svg width="163" height="14" viewBox="0 0 163 14" fill="none" xmlns="http://www.w3.org/2000/svg">
<g clip-path="url(#clip0_1902_725)">
<path d="M7.15 4.16002C7.33 4.20002 7.42 4.29002 7.42 4.48002V5.57002C7.42 5.75002 7.33 5.84002 7.13 5.84002H4.33C2.42 5.84002 2.17 6.46002 2.17 8.98002C2.17 11.5 2.42 12.14 4.33 12.14H7.13C7.33 12.14 7.42 12.23 7.42 12.41V13.5C7.42 13.7 7.33 13.79 7.15 13.82C6.2 13.98 5.05 14.02 4.33 14.02C0.71 14.02 0 13.02 0 8.99002C0 4.96002 0.71 3.96002 4.33 3.96002C5.04 3.96002 6.2 4.00002 7.15 4.16002Z" fill="#1F1D32"/>
<path d="M17.55 8.99002C17.55 13 16.77 14 13.2 14C9.63 14 8.87 13 8.87 8.99002C8.87 4.98002 9.64 3.96002 13.2 3.96002C16.76 3.96002 17.55 4.96002 17.55 8.99002ZM11.02 8.99002C11.02 11.5 11.29 12.13 13.2 12.13C15.11 12.13 15.38 11.51 15.38 8.99002C15.38 6.47002 15.11 5.83002 13.2 5.83002C11.29 5.83002 11.02 6.45002 11.02 8.99002Z" fill="#1F1D32"/>
<path d="M32.97 7.9L32.93 13.64C32.93 13.82 32.86 13.91 32.68 13.91H31.06C30.88 13.91 30.81 13.82 30.81 13.64V8.58C30.81 5.94 30.4 5.82 28.85 5.82C28.23 5.82 27.58 5.87 27.07 5.96C27.25 6.5 27.34 7.21 27.34 8.19L27.3 13.65C27.3 13.85 27.23 13.92 27.07 13.92H25.43C25.25 13.92 25.16 13.83 25.16 13.65V8.23C25.16 5.93 24.71 5.84 23.2 5.84H21.68V13.65C21.68 13.83 21.59 13.92 21.41 13.92H19.79C19.61 13.92 19.54 13.83 19.52 13.65V4.53C19.52 4.32 19.61 4.28 19.79 4.24C20.73 4.04 22.11 3.95 22.96 3.95C24.21 3.95 25.39 4.18 26.03 4.49C26.99 4.15 28.17 3.94 29.03 3.94C31.97 3.94 32.99 4.53 32.97 7.9Z" fill="#1F1D32"/>
<path d="M43.35 4.04999C43.53 4.04999 43.62 4.13999 43.62 4.31999V13.42C43.62 13.65 43.53 13.67 43.35 13.71C42.03 13.98 40.44 14.01 39.37 14.01C36.07 14.01 35.14 13.49 35.14 9.76999V4.32999C35.14 4.14999 35.27 4.05999 35.44 4.05999H37.04C37.22 4.05999 37.29 4.14999 37.29 4.32999V9.37999C37.29 12.02 37.7 12.14 39.38 12.14H41.43V4.32999C41.43 4.14999 41.52 4.05999 41.7 4.05999H43.34L43.35 4.04999Z" fill="#1F1D32"/>
<path d="M54.35 8.19001V13.65C54.35 13.83 54.24 13.92 54.06 13.92H52.46C52.28 13.92 52.19 13.83 52.19 13.65V8.59001C52.19 5.95001 51.78 5.84001 50.1 5.84001H48.05V13.65C48.05 13.83 47.96 13.92 47.78 13.92H46.14C45.96 13.92 45.89 13.83 45.89 13.65V4.53001C45.89 4.30001 45.98 4.28001 46.14 4.24001C47.46 3.97001 49.05 3.95001 50.13 3.95001C53.43 3.95001 54.34 4.45001 54.34 8.18001L54.35 8.19001Z" fill="#1F1D32"/>
<path d="M58.97 1.23C58.97 2.01 58.52 2.46 57.69 2.46C56.86 2.46 56.39 2.01 56.39 1.23C56.39 0.45 56.85 0 57.69 0C58.53 0 58.97 0.45 58.97 1.23ZM58.49 4.05C58.67 4.05 58.76 4.14 58.76 4.32V13.65C58.76 13.83 58.67 13.92 58.49 13.92H56.87C56.69 13.92 56.6 13.83 56.6 13.65V4.32C56.6 4.14 56.69 4.05 56.87 4.05H58.49Z" fill="#1F1D32"/>
<path d="M67.92 4.15998C68.1 4.19998 68.19 4.28998 68.19 4.47998V5.56998C68.19 5.74998 68.1 5.83998 67.9 5.83998H65.1C63.19 5.83998 62.94 6.45998 62.94 8.97998C62.94 11.5 63.19 12.14 65.1 12.14H67.9C68.1 12.14 68.19 12.23 68.19 12.41V13.5C68.19 13.7 68.1 13.79 67.92 13.82C66.98 13.98 65.82 14.02 65.1 14.02C61.48 14.02 60.77 13.02 60.77 8.98998C60.77 4.95998 61.48 3.97998 65.1 3.97998C65.81 3.97998 66.97 4.01998 67.92 4.17998V4.15998Z" fill="#1F1D32"/>
<path d="M77.51 6.88V13.09C77.51 13.32 77.47 13.5 77.15 13.61C76.22 13.88 74.65 14 73.14 14C70.64 14 69.38 13.61 69.38 11.02C69.38 8.75 70.58 8.18 72.77 8.18H75.36V7.25C75.36 6.25 74.77 5.82 73.34 5.82H70.41C70.2 5.82 70.14 5.77 70.14 5.55V4.46C70.14 4.25 70.21 4.21 70.39 4.17C71.46 3.97 72.42 3.94 73.33 3.94C76.47 3.94 77.5 4.94 77.5 6.86L77.51 6.88ZM72.89 9.73C71.95 9.73 71.52 10.03 71.52 10.93C71.52 11.95 72 12.2 73.32 12.2C73.77 12.2 74.75 12.16 75.35 12V9.73H72.89Z" fill="#1F1D32"/>
<path d="M86.59 4.15998C86.77 4.19998 86.86 4.28998 86.86 4.47998V5.56998C86.86 5.74998 86.77 5.83998 86.57 5.83998H83.77C81.86 5.83998 81.61 6.45998 81.61 8.97998C81.61 11.5 81.86 12.14 83.77 12.14H86.57C86.77 12.14 86.86 12.23 86.86 12.41V13.5C86.86 13.7 86.77 13.79 86.59 13.82C85.64 13.98 84.49 14.02 83.77 14.02C80.15 14.02 79.44 13.02 79.44 8.98998C79.44 4.95998 80.15 3.97998 83.77 3.97998C84.48 3.97998 85.64 4.01998 86.59 4.17998V4.15998Z" fill="#1F1D32"/>
<path d="M90.99 1.23C90.99 2.01 90.54 2.46 89.71 2.46C88.88 2.46 88.41 2.01 88.41 1.23C88.41 0.45 88.87 0 89.71 0C90.55 0 90.99 0.45 90.99 1.23ZM90.51 4.05C90.69 4.05 90.78 4.14 90.78 4.32V13.65C90.78 13.83 90.69 13.92 90.51 13.92H88.89C88.71 13.92 88.62 13.83 88.62 13.65V4.32C88.62 4.14 88.71 4.05 88.89 4.05H90.51Z" fill="#1F1D32"/>
<path d="M101.46 8.99002C101.46 13 100.68 14 97.11 14C93.54 14 92.78 13 92.78 8.99002C92.78 4.98002 93.55 3.96002 97.11 3.96002C100.67 3.96002 101.46 4.96002 101.46 8.99002ZM94.93 8.99002C94.93 11.5 95.2 12.13 97.11 12.13C99.02 12.13 99.29 11.51 99.29 8.99002C99.29 6.47002 99.02 5.83002 97.11 5.83002C95.2 5.83002 94.93 6.45002 94.93 8.99002ZM99.76 0.0900171C99.87 0.0900171 99.94 0.140017 99.94 0.270017V0.390017C99.94 0.480017 99.9 0.550017 99.85 0.600017L97.03 3.01002C96.94 3.08002 96.89 3.08002 96.78 3.01002L96.23 2.67002C96.14 2.62002 96.12 2.51002 96.18 2.42002L97.48 0.190017C97.52 0.120017 97.59 0.0800171 97.69 0.0800171H99.76V0.0900171Z" fill="#1F1D32"/>
<path d="M111.89 8.19001V13.65C111.89 13.83 111.78 13.92 111.6 13.92H109.99C109.81 13.92 109.72 13.83 109.72 13.65V8.59001C109.72 5.95001 109.31 5.84001 107.63 5.84001H105.58V13.65C105.58 13.83 105.49 13.92 105.31 13.92H103.67C103.49 13.92 103.42 13.83 103.42 13.65V4.53001C103.42 4.30001 103.51 4.28001 103.67 4.24001C104.99 3.97001 106.58 3.95001 107.66 3.95001C110.96 3.95001 111.87 4.45001 111.87 8.18001L111.89 8.19001Z" fill="#1F1D32"/>
<path d="M122.57 8.19001V13.65C122.57 13.83 122.46 13.92 122.28 13.92H120.67C120.49 13.92 120.4 13.83 120.4 13.65V8.59001C120.4 5.95001 119.99 5.84001 118.31 5.84001H116.26V13.65C116.26 13.83 116.17 13.92 115.99 13.92H114.35C114.17 13.92 114.1 13.83 114.1 13.65V4.53001C114.1 4.30001 114.19 4.28001 114.35 4.24001C115.67 3.97001 117.26 3.95001 118.34 3.95001C121.64 3.95001 122.55 4.45001 122.55 8.18001L122.57 8.19001Z" fill="#E98001"/>
<path d="M132.38 6.88V13.09C132.38 13.32 132.34 13.5 132.02 13.61C131.09 13.88 129.52 14 128.01 14C125.51 14 124.25 13.61 124.25 11.02C124.25 8.75 125.45 8.18 127.64 8.18H130.23V7.25C130.23 6.25 129.64 5.82 128.21 5.82H125.29C125.08 5.82 125.02 5.77 125.02 5.55V4.46C125.02 4.25 125.09 4.21 125.27 4.17C126.34 3.97 127.3 3.94 128.21 3.94C131.35 3.94 132.38 4.94 132.38 6.86V6.88ZM127.76 9.73C126.81 9.73 126.39 10.03 126.39 10.93C126.39 11.95 126.87 12.2 128.19 12.2C128.64 12.2 129.62 12.16 130.22 12V9.73H127.76Z" fill="#E98001"/>
<path d="M137.03 1.31999C137.23 1.26999 137.33 1.36999 137.33 1.56999V4.06999H139.1C139.28 4.06999 139.39 4.15999 139.39 4.33999V5.45999C139.39 5.65999 139.28 5.74999 139.1 5.74999H137.33V11.19C137.33 11.97 137.56 12.14 138.44 12.14H139.22C139.43 12.14 139.52 12.21 139.52 12.39V13.57C139.52 13.77 139.43 13.86 139.25 13.89C138.75 13.98 138.25 14.01 137.98 14.01C136.59 14.01 135.14 13.97 135.14 11.83V5.74999H134.12C133.94 5.74999 133.83 5.65999 133.83 5.45999V4.33999C133.83 4.15999 133.94 4.06999 134.12 4.06999H135.14V2.01999C135.14 1.83999 135.23 1.76999 135.39 1.72999L137.01 1.31999H137.03Z" fill="#E98001"/>
<path d="M143.43 1.23C143.43 2.01 142.98 2.46 142.15 2.46C141.32 2.46 140.85 2.01 140.85 1.23C140.85 0.45 141.31 0 142.15 0C142.99 0 143.43 0.45 143.43 1.23ZM142.95 4.05C143.13 4.05 143.22 4.14 143.22 4.32V13.65C143.22 13.83 143.13 13.92 142.95 13.92H141.33C141.15 13.92 141.06 13.83 141.06 13.65V4.32C141.06 4.14 141.15 4.05 141.33 4.05H142.95Z" fill="#E98001"/>
<path d="M153.79 4.04999C153.99 4.04999 154.04 4.09999 154 4.33999L151.98 11.9C151.5 13.77 151.36 14 149.36 14C147.51 14 147.34 13.79 146.83 11.9L144.74 4.33999C144.7 4.10999 144.78 4.04999 144.97 4.04999H146.74C146.88 4.04999 146.9 4.09999 146.97 4.33999L148.82 11.44C149 12.06 149.05 12.15 149.36 12.15C149.73 12.15 149.81 12.06 149.97 11.44L151.77 4.33999C151.82 4.10999 151.86 4.04999 152 4.04999H153.78H153.79Z" fill="#E98001"/>
<path d="M162.92 6.88V13.09C162.92 13.32 162.88 13.5 162.56 13.61C161.63 13.88 160.06 14 158.55 14C156.05 14 154.79 13.61 154.79 11.02C154.79 8.75 155.99 8.18 158.18 8.18H160.77V7.25C160.77 6.25 160.18 5.82 158.75 5.82H155.83C155.62 5.82 155.56 5.77 155.56 5.55V4.46C155.56 4.25 155.63 4.21 155.81 4.17C156.88 3.97 157.84 3.94 158.75 3.94C161.89 3.94 162.92 4.94 162.92 6.86V6.88ZM158.3 9.73C157.35 9.73 156.93 10.03 156.93 10.93C156.93 11.95 157.41 12.2 158.73 12.2C159.18 12.2 160.16 12.16 160.76 12V9.73H158.3Z" fill="#E98001"/>
</g>
<defs>
<clipPath id="clip0_1902_725">
<rect width="162.92" height="14" fill="white"/>
</clipPath>
</defs>
</svg>
